<?xml version="1.0" encoding="UTF-8"?>
<svg version="1.1" xmlns="http://www.w3.org/2000/svg" width="160" height="160">
<path d="M0 0 C7.82063188 5.53198543 13.78800401 13.01846146 15.6484375 22.52734375 C16.32648438 22.553125 17.00453125 22.57890625 17.703125 22.60546875 C31.12777368 23.42359138 39.34241906 28.36487817 48.28125 38.3515625 C54.19245637 45.94410003 56.1789055 55.79522262 55.43359375 65.25390625 C53.84317125 76.00819175 48.9560688 85.41427382 40.6484375 92.52734375 C29.85173748 99.04920823 20.06914232 100.64915999 7.6484375 99.52734375 C2.71296476 98.29639251 -1.14296819 96.33307329 -5.3515625 93.52734375 C-6.0559082 91.54711914 -6.0559082 91.54711914 -6.52734375 89.125 C-6.71256592 88.23917236 -6.89778809 87.35334473 -7.08862305 86.44067383 C-7.27851807 85.4998999 -7.46841309 84.55912598 -7.6640625 83.58984375 C-9.60560183 74.6880406 -11.69724698 66.18165927 -18.3515625 59.52734375 C-17.9765625 56.90234375 -17.9765625 56.90234375 -17.3515625 54.52734375 C-13.8865625 54.03234375 -13.8865625 54.03234375 -10.3515625 53.52734375 C-10.3515625 50.55734375 -10.3515625 47.58734375 -10.3515625 44.52734375 C-12.76802032 44.36046927 -12.76802032 44.36046927 -15.3515625 44.52734375 C-17.57346074 46.74924199 -18.27755142 48.61217083 -19.3515625 51.52734375 C-21.3315625 51.03234375 -21.3315625 51.03234375 -23.3515625 50.52734375 C-20.33946253 38.78015385 -10.71362783 29.79481558 -2.3515625 21.52734375 C-13.19943215 27.48603272 -19.5513643 34.26424778 -26.3515625 44.52734375 C-28.3515625 47.52734375 -28.3515625 47.52734375 -30.515625 48.0390625 C-31.32773438 48.09707031 -32.13984375 48.15507813 -32.9765625 48.21484375 C-33.79382813 48.28058594 -34.61109375 48.34632812 -35.453125 48.4140625 C-36.07960937 48.45144531 -36.70609375 48.48882812 -37.3515625 48.52734375 C-36.39667471 38.03614243 -34.92249221 28.49474465 -31.3515625 18.52734375 C-36.53092198 28.91958607 -40.03871788 38.97431114 -41.3515625 50.52734375 C-42.6715625 50.52734375 -43.9915625 50.52734375 -45.3515625 50.52734375 C-47.4765625 48.08984375 -47.4765625 48.08984375 -49.3515625 45.52734375 C-52.06035585 44.17294707 -54.36089518 44.46232924 -57.3515625 44.52734375 C-56.86577707 47.6502501 -56.3529613 50.52314734 -55.3515625 53.52734375 C-51.3915625 54.18734375 -47.4315625 54.84734375 -43.3515625 55.52734375 C-39.98227751 63.25687991 -41.9910187 69.85846321 -44.71484375 77.4453125 C-45.55971316 80.20798365 -45.63784459 82.66452282 -45.3515625 85.52734375 C-45.0215625 85.85734375 -44.6915625 86.18734375 -44.3515625 86.52734375 C-38.11842246 86.41987582 -35.22096604 85.17733562 -30.796875 80.8046875 C-29.3515625 79.52734375 -29.3515625 79.52734375 -27.3515625 79.52734375 C-29.49306254 87.1415661 -35.71151165 92.55894091 -42.26171875 96.51953125 C-51.38331483 100.91835703 -62.66663843 100.91243348 -72.5 98.875 C-83.5296878 94.82150275 -91.05883056 86.65450884 -96.44921875 76.44921875 C-100.00166177 67.79117158 -99.64357344 56.29058163 -96.7265625 47.52734375 C-92.57366864 37.82757768 -85.34256633 29.42522337 -75.5390625 25.21484375 C-71.82965189 23.81452696 -68.53705866 23.35307681 -64.6015625 23.02734375 C-61.81176433 22.72439481 -61.81176433 22.72439481 -59.3515625 21.52734375 C-56.67878201 17.80575066 -55.10621032 13.73960555 -53.3515625 9.52734375 C-41.966148 -7.71342678 -16.66559704 -10.43676094 0 0 Z " fill="#4397F6" transform="translate(101.3515625,33.47265625)"/>
</svg>
